HIERARCHY
ROOT Hips
{
  OFFSET 34.4349 98.8421 15.0715
  CHANNELS 6 Xposition Yposition Zposition Zrotation Xrotation Yrotation
  JOINT ToSpine
  {
    OFFSET -0.0105055 1.38907 -7.13956
    CHANNELS 3 Zrotation Xrotation Yrotation
    JOINT Spine
    {
      OFFSET 0.0105055 10 1
      CHANNELS 3 Zrotation Xrotation Yrotation
      JOINT Spine1
      {
        OFFSET 0 12 1.60637
        CHANNELS 3 Zrotation Xrotation Yrotation
        JOINT Neck
        {
          OFFSET 0 27 2.26658
          CHANNELS 3 Zrotation Xrotation Yrotation
          JOINT Head
          {
            OFFSET 0 9 2.12705
            CHANNELS 3 Zrotation Xrotation Yrotation
            End Site
            {
              OFFSET 0 11 2
            }
          }
        }
        JOINT LeftShoulder
        {
          OFFSET 8 19.6109 2.86452
          CHANNELS 3 Zrotation Xrotation Yrotation
          JOINT LeftArm
          {
            OFFSET 12 1 0.681055
            CHANNELS 3 Zrotation Xrotation Yrotation
            JOINT LeftForeArm
            {
              OFFSET 19 0 -1.52608
              CHANNELS 3 Zrotation Xrotation Yrotation
              JOINT LeftHand
              {
                OFFSET 23 0 0
                CHANNELS 3 Zrotation Xrotation Yrotation
                End Site
                {
                  OFFSET 10 0 0
                }
              }
            }
          }
        }
        JOINT RightShoulder
        {
          OFFSET -8 19.6109 2.86452
          CHANNELS 3 Zrotation Xrotation Yrotation
          JOINT RightArm
          {
            OFFSET -12 1 0.681055
            CHANNELS 3 Zrotation Xrotation Yrotation
            JOINT RightForeArm
            {
              OFFSET -19 0 -1.52608
              CHANNELS 3 Zrotation Xrotation Yrotation
              JOINT RightHand
              {
                OFFSET -23 0 0
                CHANNELS 3 Zrotation Xrotation Yrotation
                End Site
                {
                  OFFSET -10 0 0
                }
              }
            }
          }
        }
      }
    }
  }
  JOINT LeftUpLeg
  {
    OFFSET 9 -7.17245 0
    CHANNELS 3 Zrotation Xrotation Yrotation
    JOINT LeftLeg
    {
      OFFSET 0 -44.1113 0
      CHANNELS 3 Zrotation Xrotation Yrotation
      JOINT LeftFoot
      {
        OFFSET 0 -36.1829 0
        CHANNELS 3 Zrotation Xrotation Yrotation
        JOINT LeftToeBase
        {
          OFFSET 0 -4.84184 13
          CHANNELS 3 Zrotation Xrotation Yrotation
          End Site
          {
            OFFSET 0 1 6
          }
        }
      }
    }
  }
  JOINT RightUpLeg
  {
    OFFSET -9 -7.17245 0
    CHANNELS 3 Zrotation Xrotation Yrotation
    JOINT RightLeg
    {
      OFFSET 0 -44.0551 0
      CHANNELS 3 Zrotation Xrotation Yrotation
      JOINT RightFoot
      {
        OFFSET 0 -36.1469 0
        CHANNELS 3 Zrotation Xrotation Yrotation
        JOINT RightToeBase
        {
          OFFSET 0 -4.92256 13
          CHANNELS 3 Zrotation Xrotation Yrotation
          End Site
          {
            OFFSET 0 1 6
          }
        }
      }
    }
  }
}
MOTION
Frames:	17
Frame Time:	0.0333333
33.513 95.7865 25.0178 -4.97602 -21.0364 -10.853 0 0 0 0.46793 -2.91161 -0.168469 6.69929 19.2832 -2.1057 4.62224 9.54255 13.9307 -3.76505 4.56657 16.5694 -29.2609 6.15009 -13.7862 -19.2623 -31.9308 -28.3928 62.9671 7.30753 -86.2866 30.1636 1.77808 6.57099 29.2927 6.88297 15.798 31.0206 26.3083 6.18046 4.72078 -2.04693 18.4649 -4.13169 -0.148189 4.12219 8.49737 19.5854 12.8427 -0.0410462 26.5516 -11.4509 -1.31687 -19.3908 -0.224304 -0.829575 -2.63509 1.21293 -4.86709 17.1905 -4.94089 -0.538642 25.5988 26.4706 -8.5894 -17.2607 -1.30676 -0.800687 -7.22714 0.544199 
33.0566 95.3376 24.9295 -5.74508 -21.9247 -12.0954 0 0 0 1.56368 -1.34317 -0.825182 9.56145 19.8571 -3.55161 1.54934 9.08592 17.1264 -5.75369 3.93678 19.0955 -29.9933 6.05441 -13.1875 -14.6954 -35.3776 -12.4787 63.9953 5.26414 -87.4373 28.2279 1.62561 6.45668 29.4696 6.80335 15.4883 27.9103 27.4403 7.20458 2.44722 -0.256654 20.5022 -4.8944 -0.163533 3.81917 8.92268 19.9773 11.8485 0.00999394 28.5627 -9.7603 -0.92024 -20.3183 -0.165408 -1.06718 -3.44576 1.56667 -4.35579 17.3487 -3.98613 -0.51715 27.477 26.3382 -10.0161 -18.1775 -1.60646 -0.650198 -7.62831 -0.0926874 
32.6863 94.8508 24.731 -6.37972 -21.9364 -12.9611 0 0 0 3.01454 -0.562985 -1.3255 12.3389 20.7719 -4.97306 -2.53683 7.21778 19.9461 -6.64703 4.01739 20.5957 -32.1564 6.32354 -12.9516 -9.95744 -36.7506 1.71439 52.5259 4.72119 -86.3896 28.9553 1.82641 7.0876 29.2547 6.51523 14.7967 25.588 26.7348 7.87283 -0.495484 3.27674 22.5845 -4.44978 -0.147416 3.79474 9.55612 18.9041 10.9647 -0.0142893 31.4653 -8.6541 -0.629367 -21.5613 -0.118903 -1.38856 -3.85215 2.23309 -3.94407 16.1793 -3.53519 -0.18166 30.0407 26.6317 -10.9377 -19.3054 -1.86579 -0.594031 -7.57385 -0.266129 
32.2893 94.2227 24.3689 -7.25062 -22.3263 -12.8121 0 0 0 4.72276 1.44609 -2.01245 14.8897 21.2642 -6.42422 -6.54537 4.04238 22.3386 -7.00742 3.61859 21.6806 -33.6941 6.59456 -12.9906 -7.5598 -37.4135 12.7251 33.778 3.88178 -84.2208 30.4052 1.95908 7.13124 28.3115 6.01596 13.8676 24.6756 24.8047 8.34976 -2.2265 5.3489 24.3037 -5.34221 -0.170527 3.65496 11.0449 17.4118 9.77006 0.0145286 35.4927 -8.67803 0.259855 -22.8212 0.0519674 -2.1246 -4.89877 3.78324 -3.00896 15.8306 -4.25598 -0.0439989 32.0466 27.4808 -10.911 -20.4977 -1.978 -0.367541 -7.44099 -0.996983 
32.0709 93.631 23.9419 -7.65661 -22.3913 -11.53 0 0 0 6.74979 3.2897 -2.929 16.8481 21.5994 -7.75865 -11.1349 0.992773 24.1346 -6.60575 1.65875 21.9367 -35.0772 6.81356 -12.9571 -6.7344 -37.6285 21.182 21.2978 2.7525 -82.9775 31.235 3.30553 11.8163 28.2917 5.88285 13.4967 23.8621 20.9505 7.16815 -2.57735 5.24002 26.048 -5.82919 -0.172921 3.39432 11.8514 14.8373 6.93681 0.00744316 39.9145 -7.22253 0.990791 -23.9196 0.211124 -2.55421 -5.88771 4.64482 -2.30704 14.9551 -5.69297 0.00750122 34.3349 27.586 -9.42434 -22.3646 -1.86219 -0.481112 -5.47697 0.00430363 
31.9534 93.17 23.4925 -7.2437 -22.3598 -9.68797 0 0 0 9.58345 5.26918 -3.59452 15.642 21.3643 -7.71471 -12.0986 -2.3758 24.1215 -7.76071 0.703434 22.0656 -31.8367 6.21252 -12.8031 -11.2676 -37.1104 26.9067 25.8475 3.57051 -82.6746 28.8637 2.64194 10.1908 28.6602 5.75739 12.9665 24.5574 17.2247 5.16548 -2.96535 5.72413 27.4455 -6.29599 -0.172465 3.13869 12.0362 11.8233 4.98861 -0.0304485 44.0449 -6.86882 2.59885 -23.16 0.529935 -2.9044 -7.64919 5.06583 -2.63219 13.9174 -7.80144 -0.00701389 36.4112 28.4659 -7.44164 -24.5469 -1.62448 -0.646242 -2.83737 1.20797 
31.7734 92.881 23.0034 -6.21117 -22.2687 -7.73283 0 0 0 11.0246 6.82377 -3.74484 15.9951 21.9417 -7.99806 -15.3901 -6.30457 24.3785 -6.77835 -0.362811 21.4542 -30.0719 5.74834 -12.3143 -14.7228 -35.3404 30.127 27.539 4.54994 -81.3496 24.9887 1.78179 8.06371 27.9649 5.72789 13.2071 25.2813 14.1132 2.64089 -4.12166 7.59907 28.5802 -6.53745 -0.161649 2.8275 11.6649 8.84831 3.434 0.0117899 47.4361 -8.70882 3.48133 -19.7359 0.6067 -4.05486 -11.9544 7.36307 -3.15942 12.9389 -9.15388 0.00406768 38.0283 28.04 -7.41172 -25.3599 -1.66995 -0.835826 -2.44371 1.87864 
31.6645 92.6215 22.5252 -4.80505 -21.6318 -6.2089 0 0 0 12.217 8.53373 -3.74216 15.416 21.4663 -7.43606 -17.8012 -8.38913 25.1438 -6.10318 -1.28938 21.6887 -28.5739 5.11586 -11.1868 -19.1923 -31.1152 31.2187 29.4375 5.64149 -80.1186 23.1262 1.53806 7.49788 26.7802 5.62283 13.4627 27.5825 12.7827 0.51552 -5.08787 9.73042 27.7723 -6.15583 -0.159819 2.93445 10.8975 6.205 3.52293 0.00337745 49.4183 -8.68786 4.69465 -18.5834 0.768749 -3.77224 -12.681 6.33617 -4.32862 11.2466 -10.3531 -0.000574073 39.7259 28.6243 -7.73012 -25.3758 -1.7429 -0.755239 -3.68379 1.34032 
31.6524 92.6083 22.1768 -2.99903 -20.6097 -5.12652 0 0 0 13.4912 9.84077 -3.4547 13.9984 20.8929 -6.25614 -21.0997 -9.56781 25.9596 -5.06732 -2.58108 21.692 -27.9833 4.63195 -10.0333 -23.9841 -27.673 31.51 24.9539 6.739 -75.8462 21.7369 1.26779 6.60495 25.2468 5.35719 13.4274 30.9035 13.1752 -1.71752 -4.79288 9.93825 25.9188 -7.34689 -0.23639 3.69246 9.45888 4.02669 4.05435 -0.00233148 50.0479 -8.20752 5.41418 -17.5498 0.83685 -3.15615 -12.4537 4.59936 -6.06756 9.30736 -10.9276 -0.00150206 41.0013 28.7115 -7.90809 -25.8253 -1.81574 -0.904695 -3.64739 1.81618 
31.6394 92.8498 21.8722 -1.49629 -17.9232 -4.27766 0 0 0 15.6146 9.43732 -3.03316 11.1637 20.0958 -4.73508 -24.2821 -9.53548 26.7648 -4.36885 -4.72669 21.6968 -27.9443 4.27805 -9.0179 -29.7363 -24.7153 30.8691 16.7878 6.8857 -68.3273 19.9584 1.39548 7.8938 24.5303 5.54402 14.3917 34.5743 11.658 -5.96368 -4.63913 9.816 25.4604 -6.45692 -0.193223 3.41844 8.48316 0.490429 4.89064 0.00303665 50.087 -8.97439 5.10474 -16.1079 0.723966 -3.13597 -12.2284 4.60492 -7.10393 5.91672 -11.1234 0.00100314 41.5532 28.1891 -8.07261 -25.8652 -1.85659 -0.892336 -2.97405 1.92859 
31.6124 93.2421 21.7263 0.06166 -16.4046 -3.28024 0 0 0 17.2544 10.46 -2.59374 8.09219 18.8127 -2.9309 -25.9365 -10.3465 27.2954 -4.6416 -5.34029 22.065 -27.6421 3.94046 -8.13506 -35.5343 -22.62 31.2116 13.7037 6.8997 -63.7723 19.2807 1.0357 6.631 23.3798 5.31429 14.2779 39.4147 10.6439 -9.31792 -3.70941 8.13258 24.9601 -5.39029 -0.154211 3.27881 7.3577 -1.2303 5.4639 0.00067932 49.0899 -10.236 4.5221 -14.6951 0.58247 -3.05339 -11.8533 4.46489 -8.27046 4.32962 -11.3271 -0.000799896 41.1688 27.4862 -7.92597 -25.7063 -1.81103 -0.80424 -2.39463 1.79213 
31.5523 93.6505 21.721 1.18065 -14.9111 -2.09907 0 0 0 19.0408 10.6899 -2.3231 4.82477 18.2851 -1.41661 -27.2649 -11.4277 27.6121 -4.06279 -5.91186 22.2096 -27.3169 3.6079 -7.25972 -41.6882 -19.9833 30.0326 23.2696 13.7451 -61.0787 25.0057 0.0201595 -0.0525216 22.1232 4.85134 13.4277 44.9356 12.6389 -11.0756 -2.06148 5.92071 22.9833 -5.45323 -0.165222 3.46153 6.56828 -2.48016 5.65432 -0.00796925 47.57 -10.6882 4.26918 -14.117 0.52948 -2.56809 -10.6525 3.44089 -9.01267 3.24742 -12.0183 0.00248744 40.2884 26.954 -7.52262 -25.1458 -1.68102 -0.884252 -2.47929 2.01537 
31.4039 94.1891 21.7289 2.09933 -12.5998 -0.459673 0 0 0 20.0151 11.1041 -1.83796 2.32474 15.7524 -0.0849889 -27.7308 -12.1492 27.8833 -3.46492 -5.50855 22.4208 -27.4263 3.40102 -6.61328 -45.2148 -17.1407 29.8633 21.622 16.2648 -54.7551 26.8068 1.15725 4.98234 21.1663 4.54995 12.8914 50.3679 14.0836 -13.7279 -1.6627 7.19435 21.5117 -5.91447 -0.15452 3.03111 5.79048 -4.47524 4.91745 0.014037 45.6453 -11.2348 3.25255 -12.944 0.369572 -2.351 -10.071 3.00912 -9.23769 1.70322 -12.7598 -0.00280339 38.7373 25.9545 -6.62257 -24.3036 -1.42671 -0.730244 -2.77923 1.47967 
31.1562 94.7047 21.6812 3.18399 -9.68338 1.57889 0 0 0 19.2705 10.2796 -0.921319 1.33089 13.7708 0.823357 -28.2765 -12.6146 27.8125 -2.65983 -5.66147 22.2053 -27.8228 3.35348 -6.35919 -48.5224 -13.2669 28.9474 19.796 18.7534 -48.2293 34.1694 1.06223 3.43808 20.0027 4.12183 11.9788 55.6365 15.7473 -15.4156 -1.05382 8.71424 20.2047 -6.80862 -0.139243 2.35187 5.27248 -6.99 5.22589 -0.00684891 43.3582 -13.7372 2.52281 -11.2621 0.248329 -2.37174 -10.0479 3.07217 -9.6907 -0.544309 -13.9481 0.00447385 37.5014 24.4701 -6.81259 -23.3401 -1.40877 -0.665437 -2.95466 1.24342 
30.8675 95.2949 21.8959 3.94433 -7.57076 2.97412 0 0 0 18.7835 9.65148 -0.162024 -0.408813 12.2428 1.80788 -28.7037 -12.2879 28.2603 -1.7609 -7.28905 22.4126 -28.0708 3.26834 -6.04051 -51.3594 -10.5301 28.8676 16.929 19.3895 -42.5154 32.2163 1.29614 4.48009 19.5658 4.01101 11.7977 59.9212 16.6238 -17.2975 -0.15244 9.51731 19.1218 -6.4295 -0.217418 3.84917 4.58638 -8.02777 5.15593 1.97533e-005 40.489 -14.6307 2.31422 -9.62721 0.194696 -2.31497 -10.3148 2.83756 -9.57862 -1.48564 -13.7735 0.0273131 35.3231 22.3538 -6.67958 -22.1706 -1.31023 -0.561751 -3.60231 0.761066 
30.6085 95.7743 22.1702 4.19317 -5.49089 3.98099 0 0 0 18.6637 9.08453 0.486696 -2.46148 10.4508 2.81467 -28.3924 -13.3488 29.2141 -0.557532 -6.57876 23.415 -27.7175 2.79468 -4.74578 -53.7731 -8.56725 27.9891 12.651 17.6143 -36.5664 31.0106 1.15586 4.18121 19.3907 4.08254 12.1613 63.7196 17.1002 -18.9774 0.915398 9.84658 18.1236 -7.2254 -0.285239 4.52004 4.5884 -8.9941 5.9207 0.00423148 37.8313 -15.9784 2.33257 -8.88118 0.180611 -2.10041 -9.88315 2.37069 -9.14364 -2.54365 -13.1135 0.188887 33.3248 20.0875 -6.14883 -21.4009 -1.16258 -0.614563 -3.31659 1.00079 
30.3394 96.3075 22.5495 4.52699 -3.76827 5.81491 0 0 0 18.0513 8.00709 0.875267 -4.12964 9.04546 3.31315 -28.2815 -13.7175 30.2821 1.40424 -6.46506 24.2532 -27.4529 2.56097 -4.11684 -55.164 -7.08295 27.7542 8.93034 14.0791 -32.861 26.5062 1.12799 4.77773 19.949 4.294 12.6475 66.4376 17.3698 -20.5218 1.36008 10.736 17.6193 -7.28998 -0.301276 4.72527 4.34138 -9.39459 6.06117 -0.0043229 34.6224 -17.1721 2.38307 -7.92038 0.165791 -1.41551 -8.66213 0.913811 -8.86201 -2.69397 -12.8377 0.469695 30.9132 17.8003 -4.88459 -21.2078 -0.915657 -0.538098 -1.1873 1.27044 
